<svg width="117" height="51" viewBox="0 0 117 51" fill="none" xmlns="http://www.w3.org/2000/svg">
<g clip-path="url(#clip0_6842_5694)">
<path d="M64.3 15.43H61V12.47H71V15.43H67.7V32.24H64.3V15.43ZM73.3 32.24V12.47H76.57V20.52H80.05V12.47H83.31V32.24H80.05V23.48H76.57V32.24H73.3ZM86.4 12.47H89.66V27.76C89.66 29.24 90.21 29.97 91.4 29.97C92.58 29.97 93.14 29.24 93.14 27.76V12.47H96.4V27.62C96.4 31.09 94.5 33 91.4 33C88.3 33 86.4 31.1 86.4 27.62V12.47ZM100.25 12.47H103.32V32.24H100.25V12.47ZM113.67 17.22C113.53 15.5 112.64 15 111.89 15C110.81 15 110.22 15.72 110.22 16.97C110.22 20.38 117.01 22.02 117.01 27.46C117.01 30.76 114.85 32.6 111.73 32.6C108.63 32.6 106.85 30.04 106.71 27.04L109.89 26.57C110.03 28.6 110.81 29.6 111.89 29.6C113.05 29.6 113.83 28.96 113.83 27.77C113.83 23.8 107.03 22.74 107.03 17C107.03 13.8 108.93 12 112.21 12C114.93 12 116.55 14.03 116.85 16.86L113.67 17.22Z" fill="black"/>
<path d="M48.7 34.33C48.72 34.47 48.71 34.63 48.67 34.82C47.9645 36.2056 47.1556 37.536 46.25 38.8C45.97 39.19 45.99 39.09 45.65 39.1H45.56C44.62 40.3 43.56 41.52 42.35 42.8C36.35 49.1 29.03 51.04 26.18 51C23.63 50.96 20.56 49.84 18.51 48.63C16.46 47.42 13.08 44.05 13.08 44.05L5.76 46.93C5.76 46.93 7.68 45.2 9.84 42.83C12 40.47 9.09 38.13 7.21 35.33C5.33 32.53 2.04 28.14 0.580001 22.26C-0.879999 16.35 0.540001 11.5 3.32 7.72C7.07 2.62 13.37 1.45 14.8 1.07C17.9135 0.360173 21.0966 0.0012698 24.29 0H24.37C25.01 0 25.65 0.02 26.3 0.05C31.75 0.35 38.08 1.96 42.93 4.68C44.9228 5.82584 46.6592 7.36845 48.0318 9.21237C49.4044 11.0563 50.384 13.1623 50.91 15.4C51.0906 16.1301 51.2573 16.8636 51.41 17.6C52.26 21.62 52.08 24.18 51.56 26.5C51.4105 27.1203 51.2472 27.7371 51.07 28.35C50.4888 30.4199 49.6946 32.4239 48.7 34.33ZM38.37 8.83C38.97 8.43 38.29 6.97 36.63 6.41C34.97 5.84 32.19 4.63 23.93 5.11C22.7 5.18 20.62 5.4 20.33 6.45C20.05 7.51 19.87 8.41 21.59 8.77C23.31 9.14 24.71 9.4 25.69 9.73C26.67 10.07 27.15 10.65 27.47 14.53C27.8 18.51 27.36 32.04 27.26 35.01C27.2 36.73 26.86 39.23 27.08 40.15C27.29 41.07 28.3 44.13 29.29 41.8C29.94 40.3 30.39 32.77 30.56 28.78C30.74 24.78 31.4 18.23 31.56 14.99C31.71 11.76 32.41 9.44 33.94 9.44C35.47 9.44 37.76 9.21 38.37 8.82V8.83ZM42.61 11.4C41.12 10.86 40.56 12.07 40.2 13.55C39.6657 16.2816 39.3845 19.0567 39.36 21.84C39.44 23.97 39.37 26.1 37.87 25.94C36.37 25.78 36.61 24.94 36.77 21.23C36.94 17.63 38.54 10.13 36.41 10.28C35.41 10.34 35.11 10.55 34.88 11.08C34.65 11.6 33.84 13.98 33.96 18.29C34.08 22.61 33.63 28.35 33.56 30.49C33.49 32.61 33.03 38.89 32.91 40.69C32.81 42.5 33.06 46.34 34.81 42.84C35.56 41.37 35.68 38.92 36.13 36.11C36.59 33.31 36.52 32.34 36.98 30.92C37.44 29.5 38.63 28.02 38.92 30.29C39.09 31.58 38.16 36.47 38.14 37.95C38.11 40.6 38.19 43.72 38.69 44.34C40.11 46.1 40.66 43.89 40.89 42.89C41.14 41.89 41.62 36.84 41.72 35.24C41.82 33.64 43.37 16.62 43.54 14.63C43.63 13.62 44.1 11.93 42.61 11.4ZM48.7 34.33C48.58 33.6 47.77 33.33 47.28 32.96C46.52 32.4 46.05 32.36 45.98 29.69C45.91 27.02 46.76 26.46 47.34 26.27C47.92 26.07 49.22 26.13 50.4 25C51.58 23.87 50.06 22.8 48.47 22.11C46.87 21.41 47.31 20.91 47.65 18.42C47.98 16.04 50.55 16.96 51 17.14C50.68 15.7 50.3 14.2 49.87 12.89C48.8261 12.8631 47.794 13.1151 46.88 13.62C45.7 14.14 44.48 16.79 44.55 17.75C44.62 18.71 43.47 34.03 43.58 35.47C43.73 37.48 44.99 39 45.56 39.1C46.7492 37.6071 47.797 36.0069 48.69 34.32L48.7 34.33ZM44.99 10.36C46.26 11.16 49.14 11.04 49.14 11.04C48.9 10.51 48.64 10.06 48.37 9.72L48.09 9.38L47.96 9.24C46.43 8.86 45.36 8.56 44.83 8.92C44.3 9.27 43.72 9.57 44.99 10.36ZM18.43 12.2C17.99 12.73 16.39 13.62 15.45 20.04C14.5 26.44 14.3 26.68 14.01 30.74C13.71 34.91 13.62 38.74 14.67 39.11C15.71 39.48 15.93 37.92 16.09 36.55C16.25 35.19 16.51 34.43 17.33 30.8C18.14 27.17 18.8 24.88 19.87 24.7C21.96 24.35 21.64 28.14 21.91 29.8C22.15 31.32 22.69 35.51 23.25 37.02C25.09 41.92 25.85 37.57 25.98 35.72C26.11 33.85 25.48 25.36 24.62 18.75C23.76 12.13 20.51 9.75 18.43 12.2ZM21.82 20.56C21.62 21.06 18.09 22.56 18.76 19.66C18.96 18.76 19.5 15.38 20.58 16.84C21.65 18.31 21.98 20.15 21.82 20.56ZM14.73 15.4C14.6 13.61 12.39 11.33 11.67 11C6.53 8.64 2.42 14.22 2.31 14.55C1.85 15.99 1.98 15.91 2.21 17.25C2.66 19.88 6.08 30.25 8.72 35.38C11.39 40.55 10.73 33.52 10.05 29.16C9.6 26.29 9.25 23.07 9.25 23.07C9.25 23.07 10.71 22.35 12.92 20.84C15.14 19.32 14.87 17.19 14.73 15.4ZM10.34 17.67C10.27 18.79 8.1 19.92 7.74 19.3C6.19 16.7 6.79 15.86 7.24 15.08C7.69 14.31 8.74 14.44 9.47 15.08C10.07 15.62 10.4 16.75 10.34 17.68V17.67Z" fill="black"/>
</g>
<defs>
<clipPath id="clip0_6842_5694">
<rect width="117" height="51" fill="white"/>
</clipPath>
</defs>
</svg>
